<svg width="488" height="421" viewBox="0 0 488 421" fill="none" xmlns="http://www.w3.org/2000/svg">
<path d="M368.527 61.5C475.369 156.402 491.849 237 486.704 265.446C463.873 392.571 363.865 415.795 333.959 417.482C294.406 419.652 230.896 416.759 189.092 417.884C74.6941 424.393 28.3078 360.187 19.4647 327.321C-35.202 192.804 41.4118 89.2232 86.5922 54.2678C202.598 -46.4197 322.945 17.1428 368.527 61.5Z" fill="#F7BC28"/>
<path d="M184.429 163.714C190.057 151.42 197.051 139.848 203.965 128.277L261.847 32.2499C267.073 23.6517 275.112 13.7678 284.437 14.5714C285.724 14.7321 286.769 15.8571 286.608 17.2231C286.608 17.3839 286.527 17.5446 286.527 17.7856C281.865 31.4464 274.067 43.9017 263.857 54.1071C261.445 56.4374 258.631 58.0446 258.229 59.2499C257.988 60.0535 254.853 68.7321 253.727 72.3481C240.543 113.17 228.082 146.437 222.133 160.661" fill="#FFC9A0"/>
<path d="M227.68 154.152C221.169 173.839 219.078 184.205 208.949 189.83L155.327 210C164.01 193.446 174.863 170.464 184.912 154.714L227.68 154.152Z" fill="#307549"/>
<path d="M175.827 164.839C193.112 164.196 210.396 164.437 227.6 165.643C228.886 165.643 230.012 164.518 230.012 163.232C229.931 161.946 228.886 160.902 227.6 160.821C210.396 159.616 193.112 159.375 175.827 160.018C172.692 160.098 172.692 165 175.827 164.839Z" fill="#153A23"/>
<path d="M181.455 201C178.963 189.991 179.284 175.687 186.922 163.634C188.61 160.982 185.957 159.214 184.51 161.946C177.918 174.402 174.139 176.732 173.978 202.446C173.978 205.58 177.274 205.42 177.194 202.286L181.455 201Z" fill="#153A23"/>
<path d="M191.665 194.973C195.684 184.446 199.543 173.196 204.206 162.911C204.769 161.705 205.01 161.223 203.723 160.42C202.518 159.777 201.071 160.179 200.347 161.304C193.835 173.036 192.469 189.268 186.922 193.687C185.876 194.491 187.404 196.339 188.61 196.741C189.896 196.982 191.263 196.259 191.665 194.973Z" fill="#153A23"/>
<path d="M199.945 196.018C201.553 193.687 204.125 192.241 206.216 190.473C208.547 188.545 207.422 185.571 209.431 183.321C212.969 179.464 216.265 174.884 219.239 165C220.123 161.946 214.094 160.58 213.531 163.714C211.843 172.955 210.155 175.768 207.261 181.232C205.974 183.723 204.125 185.893 201.955 187.58C199.623 189.429 197.372 191.036 195.684 193.527C195.041 194.732 195.443 196.179 196.569 196.902C197.774 197.545 199.302 197.143 199.945 196.018Z" fill="#153A23"/>
<path d="M158.302 244.875C132.255 245.437 85.3863 236.036 59.3392 235.875C42.9392 235.714 31.6039 239.652 10.5412 226.795C8.29021 225.509 6.2804 223.902 4.67256 221.893C3.70785 220.607 4.91373 218.679 6.36079 219.241C20.9922 225.509 38.598 215.545 53.551 221.571C64.4843 225.991 125.663 220.848 160.875 213.054" fill="#FFC9A0"/>
<path d="M420.139 117.107C405.99 144.991 390.796 172.393 374.637 199.232C364.347 188.384 361.212 185.973 348.429 174L349.475 234.027L371.422 246.482C375.682 248.893 380.184 251.384 385.088 251.223C395.459 250.902 401.569 239.652 405.186 229.929C417.486 196.821 426.812 157.768 432.922 122.973L420.139 117.107Z" fill="#FFC9A0"/>
<path d="M275.755 271.473C279.533 316.795 281.302 348.536 283.874 404.384C288.135 404.143 296.335 404.545 300.435 405.589C305.42 368.143 311.931 309.804 316.755 270.589L275.755 271.473Z" fill="#FFC9A0"/>
<path d="M160.473 203.973C199.302 185.491 240.945 168.777 282.347 157.045C282.106 187.741 281.141 205.661 281.302 244.955C243.276 245.196 205.331 243.348 167.547 239.491L160.473 203.973Z" fill="#39B55D"/>
<path d="M349.475 234.027C342.159 229.848 331.869 222.857 322.784 217.473C319.649 239.491 319.81 248.732 316.755 270.67C304.133 270.67 288.377 271.393 275.755 271.473L275.514 159.054C298.747 149.652 326.402 151.902 348.51 174L349.475 234.027Z" fill="#153A23"/>
<path d="M166.582 237.562C180.973 237.643 188.529 237.08 202.92 237.803C213.371 238.366 225.269 238.205 252.522 239.732C262.41 240.295 274.308 239.973 284.196 239.973C287.331 239.973 287.331 232.178 284.196 232.178C267.474 232.178 250.753 234.83 234.031 234.348C219.802 233.946 205.492 233.384 191.263 233.062C182.982 232.821 174.782 232.741 166.502 232.661C163.447 232.661 163.367 237.562 166.582 237.562Z" fill="#153A23"/>
<path d="M151.469 223.982C170.602 224.625 189.655 223.339 208.788 222.696C226.957 222.134 246.171 223.178 264.259 222.214C272.218 221.812 283.231 217.473 287.251 220.045C289.904 221.732 290.386 217.232 287.251 217.152C273.986 216.509 255.174 217.795 239.578 218.518C220.445 219.402 202.276 219.241 183.063 219.402C172.531 219.482 162 219.482 151.469 219.161C148.333 219 148.333 223.902 151.469 223.982Z" fill="#153A23"/>
<path d="M148.414 209.196C166.422 209.277 178.561 214.018 196.327 211.125C213.853 208.232 232.504 207.187 258.149 207.027C268.278 206.946 276.398 204.536 286.527 203.732C287.814 203.652 288.939 202.607 288.939 201.241C288.939 200.036 287.814 198.428 286.527 198.83C281.543 200.116 260.32 203.812 232.584 202.366C214.657 201.482 189.333 206.062 171.406 206.384C161.276 206.545 158.543 204.375 148.414 204.295C145.278 204.375 145.278 209.196 148.414 209.196Z" fill="#153A23"/>
<path d="M168.029 192.964C198.82 191.839 226.957 193.045 257.747 191.277C266.51 190.795 277.845 187.982 286.608 187.339C287.974 187.339 289.02 186.214 289.02 184.848C289.02 183.482 287.894 182.438 286.608 182.438C255.898 184.527 228.565 188.384 194.237 187.018C185.475 186.696 176.712 187.661 167.949 187.982C164.894 188.223 164.814 193.125 168.029 192.964Z" fill="#153A23"/>
<path d="M216.345 173.759C237.327 173.839 258.39 173.277 279.373 172.071C285.241 171.75 291.19 171.348 297.059 170.866C298.425 170.866 299.471 169.741 299.471 168.455C299.471 167.089 298.345 166.045 297.059 165.964C276.076 167.571 255.094 168.536 234.112 168.777C228.163 168.857 222.294 168.857 216.345 168.857C213.129 168.937 213.129 173.759 216.345 173.759Z" fill="#153A23"/>
<path d="M44.5471 148.205C42.2961 149.009 40.3667 150.375 39 152.304C35.8647 156.482 35.9451 165.321 41.6529 167.973C45.1902 169.661 51.702 170.304 54.6765 167.732C57.1686 165.723 59.098 163.071 60.2235 160.018" fill="#32142A"/>
<path d="M69.3079 182.438L79.7588 188.946C80.0804 189.107 80.402 189.348 80.6432 189.67C80.8843 190.071 80.9647 190.554 80.9647 191.036L81.3667 204.777C81.4471 205.259 81.3667 205.821 81.0451 206.223C80.8039 206.464 80.402 206.705 80.0804 206.786C76.1412 208.071 72.202 209.277 68.1824 210.321L69.3079 182.438Z" fill="#E48929"/>
<path d="M70.3529 171.188C70.8353 186.214 70.5941 201.321 69.549 216.348C69.4686 217.393 69.3078 218.598 68.5039 219.402C67.7 220.205 66.4137 220.205 65.2078 220.205C45.2706 220.286 25.3333 220.366 5.39609 220.286C4.83334 220.366 4.1902 220.205 3.70785 219.884C3.38628 219.482 3.14511 219 3.14511 218.438C0.813734 203.089 0.572558 187.42 2.42158 171.991L70.3529 171.188Z" fill="#32142A"/>
<path d="M85.2255 183.723C85.3059 192.562 85.2255 201.402 85.1451 210.161C85.1451 210.723 85.1451 211.366 85.0647 211.929C84.9843 212.411 84.9039 212.411 84.7431 212.411C82.8941 212.491 80.9647 212.491 79.1157 212.491C79.0353 212.491 79.0353 212.491 78.9549 212.25C78.9549 212.009 78.8745 211.687 78.8745 211.446C78.6333 202.446 78.6333 192.723 78.7941 183.643L85.2255 183.723Z" fill="#32142A"/>
<path d="M43.5824 166.768C47.0393 167.089 50.5765 167.491 53.7118 166.205C56.8471 164.92 59.6608 162.348 60.3843 159.054C61.2687 155.277 59.3392 151.179 56.0432 149.009C52.5863 146.92 48.4059 146.518 44.6275 147.964C43.5824 148.286 42.6177 148.848 41.8138 149.491C40.1255 150.937 39.402 153.187 39 155.357C38.5177 157.446 38.5981 159.616 39.0804 161.705C39.7236 163.875 41.251 165.562 43.3412 166.366" fill="#E48929"/>
<path d="M44.0647 173.116C46.8785 168.455 49.2902 163.554 51.3804 158.491L47.9235 158.411C47.5216 158.411 47.2 158.411 46.8785 158.571C46.6373 158.732 46.3961 158.973 46.2353 159.214C43.0196 163.795 41.3314 169.178 38.2765 173.839" fill="#32142A"/>
<path d="M13.2745 139.527C10.2196 140.652 7.56666 142.741 5.71764 145.393C1.53725 151.339 1.93921 163.554 9.97843 167.089C14.9627 169.259 23.9667 169.902 28.0667 166.286C31.5235 163.393 34.0961 159.616 35.4627 155.357" fill="#32142A"/>
<path d="M5.79807 159.214C4.4314 156.482 4.91376 153.268 5.39611 150.295C5.87846 147.321 6.84317 144.107 9.17454 141.938C10.3 140.973 11.6667 140.17 13.0334 139.607C18.1785 137.598 24.449 137.759 29.1118 140.652C33.7745 143.545 36.6687 149.25 35.5432 154.554C34.5785 159.134 30.8 162.83 26.3785 164.839C26.4589 164.839 10.702 169.179 5.79807 159.214Z" fill="#E48929"/>
<path d="M25.8157 145.795C25.6549 145.473 25.6549 145.071 25.7353 144.67C25.7353 144.268 25.8961 143.946 26.2177 143.705C26.3784 143.625 26.5392 143.464 26.7 143.384C27.3431 143.143 28.0667 143.143 28.6294 143.545C29.1922 143.866 29.5137 144.589 29.4333 145.232C29.2726 145.795 28.8706 146.277 28.3079 146.437C28.3079 146.437 26.3784 147 25.8157 145.795Z" fill="#32142A"/>
<path d="M28.951 153.75C28.8706 153.429 28.8706 153.027 28.951 152.625C28.951 152.223 29.1118 151.902 29.4333 151.661C29.5941 151.5 29.7549 151.42 29.9157 151.339C30.5588 151.098 31.2824 151.098 31.8451 151.5C32.4078 151.821 32.7294 152.545 32.649 153.188C32.4882 153.75 32.0863 154.232 31.5235 154.393C31.5235 154.473 29.5941 154.955 28.951 153.75Z" fill="#32142A"/>
<path d="M16.9726 143.384C16.8118 143.063 16.8118 142.661 16.8922 142.259C16.8922 141.857 17.0529 141.536 17.3745 141.295C17.5353 141.214 17.6961 141.054 17.8569 140.973C18.5 140.732 19.2235 140.732 19.7863 141.134C20.349 141.455 20.6706 142.179 20.5902 142.821C20.4294 143.384 20.0275 143.866 19.4647 144.027C19.4647 144.027 17.5353 144.589 16.9726 143.384Z" fill="#32142A"/>
<path d="M8.69216 147.643C8.53137 147.321 8.53137 146.92 8.61177 146.518C8.61177 146.116 8.77255 145.795 9.09412 145.554C9.2549 145.473 9.41569 145.313 9.57647 145.232C10.2196 144.991 10.9431 144.991 11.5059 145.393C12.0686 145.714 12.3902 146.438 12.3098 147.08C12.149 147.643 11.7471 148.125 11.1843 148.286C11.2647 148.286 9.3353 148.848 8.69216 147.643Z" fill="#32142A"/>
<path d="M7.4059 156.402C7.24512 156.08 7.24512 155.679 7.32551 155.277C7.32551 154.875 7.48629 154.554 7.80786 154.312C7.96865 154.232 8.12943 154.071 8.29022 153.991C8.93335 153.75 9.65688 153.75 10.2196 154.152C10.7824 154.473 11.1039 155.196 11.0235 155.839C10.8628 156.402 10.4608 156.884 9.89806 157.045C9.97845 157.045 8.04904 157.607 7.4059 156.402Z" fill="#32142A"/>
<path d="M14.4 162.348C14.2392 162.027 14.2392 161.625 14.3196 161.223C14.3196 160.821 14.4804 160.5 14.8019 160.259C14.9627 160.179 15.1235 160.018 15.2843 159.937C15.9274 159.696 16.651 159.696 17.2137 160.098C17.7765 160.42 18.098 161.143 18.0176 161.786C17.8568 162.348 17.4549 162.83 16.8921 162.991C16.8921 163.071 14.9627 163.554 14.4 162.348Z" fill="#32142A"/>
<path d="M23.8863 160.5C23.7255 160.179 23.7255 159.777 23.8059 159.375C23.8059 158.973 23.9666 158.652 24.2882 158.411C24.449 158.33 24.6098 158.17 24.7706 158.089C25.4137 157.848 26.1372 157.848 26.7 158.25C27.2627 158.571 27.5843 159.295 27.5039 159.938C27.3431 160.5 26.9412 160.982 26.3784 161.143C26.4588 161.223 24.5294 161.705 23.8863 160.5Z" fill="#32142A"/>
<path d="M53.9529 152.866C53.8725 152.625 53.8725 152.384 53.9529 152.143C53.9529 151.741 54.1941 151.42 54.5961 151.259C55.0784 151.098 55.5608 151.179 55.9627 151.42C56.3647 151.661 56.5255 152.143 56.4451 152.625C56.2843 153.027 56.0431 153.268 55.6412 153.429C55.6412 153.348 54.2745 153.67 53.9529 152.866Z" fill="#32142A"/>
<path d="M55.9628 158.411C55.8824 158.17 55.8824 157.929 55.9628 157.687C55.9628 157.446 56.1235 157.205 56.2843 156.964C56.3647 156.884 56.5255 156.804 56.6059 156.804C57.0883 156.643 57.5706 156.643 57.9726 156.884C58.3745 157.125 58.6157 157.607 58.4549 158.089C58.2941 158.491 58.053 158.732 57.651 158.893C57.7314 158.893 56.3647 159.295 55.9628 158.411Z" fill="#32142A"/>
<path d="M47.7627 150.937C47.6824 150.696 47.6824 150.455 47.7627 150.214C47.7627 149.973 47.9235 149.732 48.0843 149.491C48.1647 149.411 48.3255 149.33 48.4059 149.33C48.8882 149.17 49.3706 149.17 49.7726 149.411C50.1745 149.652 50.3353 150.134 50.2549 150.616C50.0941 151.018 49.8529 151.259 49.451 151.42C49.5314 151.5 48.1647 151.821 47.7627 150.937Z" fill="#32142A"/>
<path d="M41.9745 153.83C41.8941 153.589 41.8941 153.348 41.9745 153.107C41.9745 152.866 42.1353 152.625 42.2961 152.384C42.3765 152.304 42.5373 152.223 42.6177 152.223C43.1 152.062 43.5824 152.063 43.9843 152.304C44.3863 152.545 44.5471 153.027 44.4667 153.509C44.3059 153.911 44.0647 154.152 43.6628 154.313C43.7432 154.313 42.3765 154.634 41.9745 153.83Z" fill="#32142A"/>
<path d="M40.9294 159.857C40.7686 159.375 40.9294 158.812 41.251 158.411C41.3314 158.33 41.4922 158.25 41.5725 158.25C42.0549 158.089 42.5373 158.089 42.9392 158.33C43.3412 158.571 43.5824 159.054 43.4216 159.536C43.3412 159.937 43.0196 160.259 42.6176 160.42C42.698 160.42 41.3314 160.741 40.9294 159.857Z" fill="#32142A"/>
<path d="M45.6725 164.116C45.5921 163.875 45.5921 163.634 45.6725 163.393C45.6725 163.152 45.8333 162.911 45.9941 162.67C46.0745 162.589 46.2353 162.509 46.3157 162.509C46.798 162.348 47.2804 162.429 47.6823 162.589C48.0843 162.83 48.2451 163.312 48.1647 163.795C48.0039 164.196 47.7627 164.437 47.3608 164.598C47.4412 164.598 46.0745 165 45.6725 164.116Z" fill="#32142A"/>
<path d="M52.3451 162.991C52.2647 162.75 52.2647 162.509 52.3451 162.268C52.3451 162.027 52.5059 161.786 52.6667 161.545C52.747 161.464 52.9078 161.384 52.9882 161.384C53.4706 161.223 53.9529 161.223 54.3549 161.464C54.7569 161.705 54.9176 162.187 54.8372 162.67C54.6765 163.071 54.4353 163.312 54.0333 163.473C54.0333 163.554 52.747 163.875 52.3451 162.991Z" fill="#32142A"/>
<path d="M34.0961 173.116L21.0725 151.982C20.9118 151.58 20.5902 151.259 20.1882 151.098C19.7863 150.937 19.3039 150.937 18.9019 151.098L15.847 151.661C20.6706 158.812 24.9314 166.366 28.3882 174.241" fill="#32142A"/>
<path d="M208.869 242.866C211.924 238.045 213.451 232.339 213.21 226.634C213.21 226.634 210.476 235.634 193.996 242.062L208.869 242.866Z" fill="#307549"/>
<path d="M322.784 217.473L299.31 202.929L320.694 234.107L322.784 217.473Z" fill="#122D1C"/>
<path d="M129.361 153.268C130.406 172.955 124.618 192.402 124.376 212.089C124.296 213.134 124.457 214.259 124.778 215.223C125.663 217.312 128.235 218.196 130.567 218.518C137.561 219.482 144.635 217.393 151.308 214.902C154.363 213.777 157.578 212.411 159.508 209.839C161.437 207.268 161.839 203.652 162.08 200.357C163.286 184.366 164.573 157.688 163.849 141.616L129.361 153.268Z" fill="#FFC9A0"/>
<path d="M168.753 179.545C176.712 164.679 184.188 147.884 180.49 134.223C179.847 131.33 178.4 128.759 176.229 126.67C171.084 122.009 163.045 123.295 156.212 124.661C147.208 126.509 136.435 127.554 130.245 120.804C128.878 119.357 127.833 117.589 126.306 116.464C124.778 115.339 122.286 114.857 120.839 116.223C119.874 117.107 119.633 118.554 119.553 119.839C118.427 130.366 119.874 141.455 125.663 150.295C131.451 159.134 142.063 165.241 152.514 163.714C153.639 163.554 154.925 163.393 155.649 164.196C155.971 164.598 156.131 165 156.292 165.482L160.553 179.545H168.753Z" fill="#32142A"/>
<path d="M158.543 174.08C162.402 171.268 167.869 172.071 170.763 176.009C172.853 178.821 173.014 182.598 171.245 185.571C168.673 189.911 162.884 191.196 157.82 191.116L158.543 174.08Z" fill="#FFC9A0"/>
<path d="M175.425 165.884C155.327 166.527 129.441 152.545 129.441 152.545C129.522 155.518 129.361 160.098 129.361 162.991C142.947 164.598 159.347 171.991 173.014 171.188C173.014 171.188 174.3 168.696 175.425 165.884Z" fill="#39B55D"/>
<path d="M124.376 147.723C126.788 153.509 131.933 157.929 137.722 160.42C143.51 162.911 149.861 163.714 156.212 163.955C157.659 164.036 159.106 163.955 160.553 163.795C162.482 163.312 164.412 162.589 166.18 161.625L124.376 147.723Z" fill="#32142A"/>
<path d="M349.475 234.027L352.931 236.036L349.475 175.045L348.429 174L349.475 234.027Z" fill="#EFB086"/>
<path d="M275.755 271.473L275.996 274.205L316.353 273.643L316.674 270.67L275.755 271.473Z" fill="#EFB086"/>
<path d="M152.031 200.759C160.071 202.045 173.094 203.25 181.133 204.536C187.404 205.5 193.835 206.545 199.543 209.196C205.251 211.848 210.557 216.429 212.486 222.455C213.129 224.304 213.29 226.312 213.049 228.241C212.084 234.187 206.055 237.723 200.508 240.054C184.992 246.643 168.512 250.42 151.71 251.304L152.031 200.759Z" fill="#39B55D"/>
<path d="M163.206 251.304C162.482 234.027 162.884 216.75 164.492 199.473C164.492 198.187 163.367 197.062 162.08 197.062C160.714 197.062 159.669 198.187 159.588 199.473C157.98 216.67 157.578 234.027 158.302 251.304C158.463 254.437 163.367 254.437 163.206 251.304Z" fill="#153A23"/>
<path d="M162.161 213.054C168.592 212.652 175.104 212.652 181.535 213.054C188.449 213.616 197.131 216.348 203.804 218.277C206.778 219 209.592 220.205 212.165 221.652C214.898 223.259 217.31 219.08 214.657 217.393C209.271 214.179 202.759 212.652 196.649 211.607C189.173 210.321 181.696 209.678 174.139 209.518C170.361 209.437 166.582 209.437 162.804 209.679C159.669 209.839 159.669 214.741 162.804 214.58L162.161 213.054Z" fill="#153A23"/>
<path d="M161.759 229.045C198.337 227.518 213.21 226.634 217.631 228C218.918 228.402 220.043 226.955 220.043 225.589C220.043 224.304 218.918 222.937 217.631 223.179C198.337 226.071 180.41 224.866 161.759 224.223C158.624 224.143 158.624 229.045 161.759 229.045Z" fill="#153A23"/>
<path d="M161.678 242.464C175.988 243.107 190.78 243.429 204.849 240.295C208.467 239.491 212.004 238.366 215.461 236.839C216.586 236.116 216.988 234.67 216.345 233.464C215.622 232.339 214.175 231.938 212.969 232.58C207.261 235.152 200.829 236.277 194.639 237C187.484 237.804 181.535 239.571 174.3 239.491C170.522 239.411 164.733 239.089 160.955 238.929C157.9 238.848 158.543 242.304 161.678 242.464Z" fill="#153A23"/>
<path d="M126.869 217.393L152.031 209.92V214.821L126.869 217.393Z" fill="#EFB086"/>
<path d="M162.724 190.714C162.724 190.714 159.829 190.795 158.624 190.312L162.563 192.723L162.724 190.714Z" fill="#EFB086"/>
<path d="M160.231 187.982C162.241 188.223 164.251 187.741 165.939 186.696C167.386 185.813 168.271 184.286 168.512 182.598C168.753 180.991 168.592 179.304 167.869 177.777C167.225 176.411 166.02 175.527 164.573 175.205C162.884 174.884 161.035 175.125 159.508 175.929C159.106 176.17 158.945 176.732 159.186 177.134C159.427 177.536 159.91 177.696 160.312 177.455C162.08 176.652 165.055 176.33 166.18 178.339C166.743 179.464 166.984 180.75 166.824 181.955C166.824 183.161 166.261 184.286 165.376 185.089C163.849 186.134 162 186.616 160.231 186.375C159.749 186.375 159.347 186.777 159.347 187.259C159.347 187.58 159.749 187.902 160.231 187.982Z" fill="#32142A"/>
<path d="M160.633 184.366C161.276 184.366 162 184.286 162.563 183.964C163.206 183.643 163.608 183.161 163.849 182.438C164.171 181.714 164.171 180.991 163.849 180.268C163.608 179.786 163.125 179.304 162.643 179.143C161.92 178.821 161.196 178.741 160.473 178.741C159.99 178.741 159.588 179.143 159.588 179.625C159.588 180.107 159.99 180.509 160.473 180.509H160.955H161.196C161.276 180.509 161.357 180.509 161.276 180.509C161.437 180.509 161.598 180.589 161.759 180.589L161.92 180.67H161.839H161.92C162 180.67 162.08 180.75 162.08 180.75H162.161H162.08L162.322 180.991C162.241 180.911 162.241 180.911 162.322 180.911L162.402 180.991V181.071C162.482 181.152 162.402 181.152 162.402 180.991C162.402 181.071 162.402 181.071 162.482 181.152C162.482 181.232 162.482 181.232 162.482 181.152V181.232C162.482 181.313 162.482 181.554 162.482 181.313C162.482 181.393 162.482 181.473 162.402 181.554C162.322 181.714 162.322 181.875 162.241 181.955V181.875L162.161 181.955C162.161 182.036 162.08 182.116 162.08 182.116C162.161 182.036 162.161 182.036 162.161 182.036L162.08 182.116L162 182.196C162.08 182.116 162.08 182.116 162.08 182.196L161.92 182.277H161.839C161.759 182.357 161.518 182.357 161.437 182.357C161.357 182.357 161.116 182.438 161.357 182.357C161.276 182.357 161.196 182.357 161.116 182.357H160.633C160.151 182.438 159.829 182.839 159.829 183.321C159.91 183.964 160.231 184.286 160.633 184.366Z" fill="#32142A"/>
<path d="M128.155 176.812C126.949 177.696 123.171 186.536 122.527 192.964C122.447 194.089 123.251 195.134 124.457 195.214C126.386 195.375 128.235 195.375 130.165 195.214C130.406 195.214 130.647 195.134 130.888 195.054C131.129 194.732 131.29 194.411 131.21 194.009L128.155 176.812Z" fill="#E48929"/>
<path d="M258.551 58.3661L250.673 64.875H256.3L258.551 58.3661Z" fill="#EFB086"/>
<path d="M393.931 165.964L421.104 178.42C421.104 178.42 429.223 148.848 433.002 122.973L419.094 119.277L393.931 165.964Z" fill="#39B55D"/>
<path d="M415.476 127.232C419.014 120.964 428.741 126.911 430.751 129.643C432.841 132.455 435.896 127.554 438.308 125.063C441.122 122.089 451.492 119.277 458.727 117.589C463.229 116.545 467.731 115.339 472.314 114.455C475.449 113.813 481.72 113.491 483.327 111.643C488.553 105.777 476.735 104.893 473.52 104.813C462.908 104.411 452.296 104.652 441.684 104.411C433.404 104.25 419.175 104.089 416.682 106.179C412.1 110.116 410.974 119.839 410.09 125.384C409.125 131.491 412.341 132.777 415.476 127.232Z" fill="#153A23"/>
<path d="M398.835 167.491C399.639 165 400.684 162.67 401.971 160.339C402.292 159.777 402.131 158.973 401.569 158.652C401.006 158.33 400.202 158.491 399.88 159.054C398.594 161.545 397.469 164.116 396.584 166.768C396.423 167.411 396.825 168.054 397.469 168.295C397.951 168.536 398.594 168.134 398.835 167.491Z" fill="#227B3D"/>
<path d="M403.739 170.063C404.382 167.411 405.508 164.839 407.035 162.589C407.357 162.027 407.196 161.223 406.553 160.902C405.99 160.58 405.186 160.741 404.865 161.384C403.176 163.795 401.971 166.527 401.327 169.42C401.167 170.063 401.569 170.705 402.212 170.946C402.855 171.107 403.578 170.705 403.739 170.063Z" fill="#227B3D"/>
<path d="M409.206 172.071C409.206 171.911 409.206 171.911 409.206 172.071C409.206 171.911 409.206 171.83 409.206 171.75C409.206 171.67 409.286 171.429 409.286 171.268C409.367 170.946 409.367 170.705 409.447 170.384C409.608 169.741 409.769 169.179 410.01 168.536C410.171 167.973 410.412 167.411 410.733 166.929C411.055 166.366 411.376 165.804 411.698 165.241C412.02 164.679 411.859 163.875 411.296 163.554C410.733 163.232 410.01 163.393 409.608 164.036C408 166.446 407.035 169.179 406.714 172.071C406.714 172.714 407.276 173.277 407.92 173.277C408.563 173.277 409.126 172.714 409.206 172.071Z" fill="#227B3D"/>
<path d="M414.11 175.205C414.351 172.795 414.914 170.384 415.798 168.054C415.959 167.411 415.557 166.768 414.914 166.527C414.271 166.366 413.627 166.768 413.386 167.411C412.422 169.902 411.778 172.554 411.618 175.205C411.618 175.848 412.18 176.411 412.824 176.411C413.547 176.411 414.11 175.929 414.11 175.205Z" fill="#227B3D"/>
<path d="M418.049 177.536L421.024 170.143C421.184 169.5 420.782 168.857 420.139 168.616C419.496 168.455 418.853 168.857 418.612 169.5L415.637 176.893C415.476 177.536 415.878 178.179 416.522 178.42C417.165 178.5 417.888 178.179 418.049 177.536Z" fill="#227B3D"/>
<path d="M306.786 354.643C304.535 373.446 303.088 386.705 300.837 402.857L283.875 404.464C282.91 383.25 282.026 369.911 281.463 354.241L306.786 354.643Z" fill="#39B55D"/>
<path d="M301.32 398.518C300.676 403.179 300.435 407.839 299.792 412.5C299.229 416.759 294.325 416.438 291.11 416.598C282.508 417.08 276.88 417.241 270.047 417.241C265.625 417.402 261.204 417.482 256.782 417.563C254.531 417.563 252.361 417.563 250.11 417.563C248.663 417.563 245.447 417.723 244.402 417.241C241.749 415.955 241.829 410.411 244.804 409.366C249.949 407.598 255.978 407.839 261.365 407.036C267.073 406.312 272.62 404.866 278.006 402.857C280.9 401.732 283.874 400.286 286.929 400.607C288.939 400.848 290.788 401.812 292.718 402.054C294.406 402.295 296.416 401.732 297.3 400.366C297.702 399.643 298.184 399.08 298.747 398.518C300.033 397.393 301.641 396.268 301.32 398.518Z" fill="#153A23"/>
<path d="M284.598 362.357C284.357 359.625 284.357 356.973 284.598 354.241C284.598 353.598 284.035 353.036 283.392 353.036C282.749 353.036 282.186 353.598 282.186 354.241C281.945 356.973 282.025 359.625 282.186 362.357C282.106 363 282.508 363.643 283.231 363.723C283.875 363.804 284.518 363.402 284.598 362.679C284.598 362.679 284.598 362.518 284.598 362.357Z" fill="#227B3D"/>
<path d="M290.145 362.437C289.663 359.866 289.663 357.214 290.145 354.562C290.306 353.92 289.904 353.277 289.261 353.036C288.618 352.875 287.975 353.277 287.733 353.92C287.171 356.973 287.171 360.027 287.733 363.08C287.894 363.723 288.618 364.125 289.261 363.964C289.904 363.804 290.306 363.161 290.145 362.437Z" fill="#227B3D"/>
<path d="M295.933 362.437C295.21 360.107 295.049 357.616 295.451 355.205C295.612 354.562 295.21 353.92 294.567 353.679C293.924 353.518 293.28 353.92 293.039 354.562C292.557 357.375 292.718 360.348 293.522 363.08C293.682 363.723 294.406 364.125 295.049 363.964C295.692 363.804 296.175 363.08 295.933 362.437Z" fill="#227B3D"/>
<path d="M301.802 363.321C300.998 360.991 300.516 358.58 300.435 356.089C300.516 355.446 300.114 354.804 299.39 354.723C298.747 354.643 298.104 355.045 298.024 355.768C298.024 355.929 298.024 356.009 298.024 356.17C298.104 358.821 298.586 361.473 299.471 364.045C299.631 364.688 300.355 365.089 300.998 364.929C301.641 364.768 301.963 363.964 301.802 363.321Z" fill="#227B3D"/>
<path d="M306.223 363.884L305.982 355.929C306.063 355.286 305.661 354.643 304.937 354.563C304.294 354.482 303.651 354.884 303.571 355.607C303.571 355.768 303.571 355.848 303.571 356.009L303.812 363.964C303.731 364.607 304.133 365.25 304.857 365.33C305.5 365.411 306.143 365.009 306.223 364.286C306.223 364.125 306.223 363.964 306.223 363.884Z" fill="#227B3D"/>
<path d="M273.504 172.714C282.186 170.143 290.708 168.134 299.551 167.893C310.565 167.571 321.418 170.384 330.824 176.009C337.737 180.348 344.008 185.732 349.233 192C350.198 192.964 351.726 192.964 352.69 192C353.655 191.036 353.655 189.509 352.69 188.545C343.526 177.938 332.029 169.259 318.524 165.321C308.073 162.348 297.22 162.429 286.608 164.357C281.784 165.321 276.961 166.527 272.218 167.973C269.243 168.938 270.529 173.679 273.504 172.714Z" fill="#307549"/>
<path d="M459.049 101.679C446.267 106.42 430.751 104.411 419.496 91.634C412.743 83.9197 410.975 73.7143 412.904 63.8304C418.773 33.8572 462.747 26.3036 477.861 53.5447C489.759 75.1607 477.057 95.009 459.049 101.679Z" fill="#BBD1CE"/>
<path d="M140.375 172.955H141.098L141.5 173.036C141.822 173.036 141.42 173.036 141.339 173.036C141.822 173.196 142.304 173.196 142.786 173.357C143.269 173.518 143.671 173.679 144.073 173.839C144.394 173.92 143.59 173.598 143.992 173.759L144.314 173.92C144.555 174 144.796 174.161 145.037 174.241C145.439 174.482 145.841 174.723 146.243 174.964L146.484 175.125C146.886 175.446 146.163 174.884 146.404 175.045C146.645 175.205 146.726 175.366 146.967 175.527C147.369 175.848 147.69 176.17 148.012 176.571L148.173 176.813C148.414 177.134 148.253 176.893 148.092 176.732C148.253 176.973 148.414 177.134 148.575 177.375C149.218 178.5 150.745 178.902 151.951 178.259C153.157 177.616 153.478 176.089 152.835 174.884C150.102 170.786 145.52 168.214 140.535 168.054C139.169 168.054 138.124 169.179 138.043 170.545C138.043 171.83 139.088 172.875 140.375 172.955Z" fill="#32142A"/>
<path d="M140.053 178.902C139.973 178.982 139.973 179.062 139.892 179.143C139.41 180.187 138.365 182.839 139.169 183.884C139.973 184.929 141.5 184.607 142.384 183.723C143.671 182.277 143.671 180.107 142.384 178.661C141.982 178.179 141.339 177.937 140.696 178.179C140.455 178.42 140.214 178.661 140.053 178.902Z" fill="#32142A"/>
<path d="M143.269 190.071C145.278 188.786 146.886 186.857 147.771 184.607C147.931 184.125 147.61 183.723 147.208 183.563C146.726 183.482 146.324 183.723 146.163 184.125L146.082 184.205L146.002 184.286L145.841 184.607C145.761 184.848 145.6 185.089 145.439 185.33C145.278 185.571 145.198 185.813 145.037 185.973L144.796 186.295C144.877 186.134 144.716 186.375 144.716 186.375L144.635 186.536C144.314 186.938 143.912 187.339 143.51 187.661L143.188 187.902L143.027 188.063C143.108 187.982 143.028 188.063 142.947 188.063C142.706 188.223 142.545 188.384 142.304 188.545C141.902 188.786 141.661 189.268 141.902 189.67C142.143 190.071 142.626 190.313 143.027 190.071C143.188 190.071 143.188 189.991 143.269 190.071Z" fill="#32142A"/>
<path d="M146.565 191.679C147.61 191.036 148.575 190.232 149.298 189.268C149.459 189.107 149.459 188.866 149.378 188.625C149.298 188.384 149.137 188.223 148.977 188.143C148.816 188.062 148.575 187.982 148.333 188.062C148.092 188.143 147.931 188.304 147.851 188.464L147.771 188.625L147.931 188.464C147.529 188.946 147.047 189.429 146.565 189.83L146.726 189.67C146.404 189.911 146.082 190.152 145.761 190.312C145.359 190.554 145.198 191.116 145.439 191.518C145.6 191.839 146.163 192 146.565 191.679Z" fill="#32142A"/>
<path d="M460.657 79.2589C455.431 81.3482 450.849 83.9196 445.704 86.0089C441.523 81.9107 436.459 79.5 432.278 75.3214C432.037 74.5178 432.52 76.125 432.278 75.3214C433.404 70.0178 434.69 64.5536 435.816 59.1696C440.8 57.9643 444.82 56.4375 449.804 55.3928L449.161 55.3125C453.743 58.6875 458.004 60.5357 462.506 63.9107C462.104 63.0268 462.908 64.875 462.506 63.9107C461.702 68.8928 461.461 74.2768 460.657 79.2589C460.416 80.5446 458.727 81.6696 460.094 81.9911C461.3 82.3125 462.908 81.5893 463.149 80.3036L465.48 65.5178C465.722 64.4732 465.239 63.3482 464.355 62.7857L456.878 57.2411L452.135 53.7053C451.733 53.3839 451.331 53.0625 450.929 52.8214C449.724 52.0178 448.196 52.5803 446.91 52.9018C442.649 53.9464 438.469 55.5536 434.208 56.5982C433.404 56.8393 432.68 57.4821 432.52 58.2857L430.51 68.1696L429.384 73.4732C429.223 73.9553 429.143 74.4375 429.143 74.9196C429.143 76.8482 431.876 78.5357 433.243 79.5803C436.62 82.2321 440.318 84.6428 443.453 87.6964C444.096 88.3393 444.98 88.5803 445.865 88.3393L461.541 82.0714C462.827 81.6696 463.551 80.3839 463.229 79.0178C462.827 77.8125 461.863 78.7768 460.657 79.2589Z" fill="#153A23"/>
<path d="M460.094 81.0268C460.335 81.1071 460.978 81.4285 460.094 81.0268L460.657 81.2678C463.39 82.6339 465.963 84.4821 468.696 85.9285C469.822 86.5714 471.028 87.1339 472.233 87.5357C472.877 87.7768 477.7 88.3393 476.012 87.1339C474.484 86.0893 471.188 84.241 469.259 82.9553C466.686 81.2678 464.194 79.3393 461.863 77.3303C464.837 79.9018 461.461 79.9017 459.773 80.866C459.933 80.9464 460.014 81.0268 460.094 81.0268Z" fill="#153A23"/>
<path d="M441.122 100.152C442.649 95.491 444.82 91.2321 446.508 86.6518C446.99 85.4464 445.945 87.2143 444.739 86.9732C443.373 86.6518 443.212 85.0446 442.729 86.3303C441.041 90.9107 440.398 94.7678 438.871 99.4286C438.469 100.634 438.067 101.839 439.273 102.161C440.478 102.482 440.318 102 440.72 100.714L441.122 100.152Z" fill="#153A23"/>
<path d="M430.831 73.1517C429.947 73.3124 429.143 73.5535 428.259 73.9553C426.49 74.5178 424.722 74.8392 422.873 74.9196C421.586 75.0803 420.3 75.241 419.014 75.4017C418.129 75.4821 416.602 75.8839 415.718 76.0446C414.833 76.2053 413.949 76.5267 415.316 77.3303C415.718 77.491 416.12 77.5714 416.522 77.491C419.255 77.491 421.988 77.491 424.722 77.7321C427.375 78.0535 430.108 78.0535 432.841 77.7321C434.128 77.5714 430.912 76.0446 430.59 75.1607C430.269 74.2767 432.198 72.9107 430.831 73.1517Z" fill="#153A23"/>
<path d="M435.414 56.5179C435.253 56.4375 435.092 57 434.931 56.9197C434.931 56.9197 435.494 56.5983 435.253 56.4375C435.173 56.4375 435.092 57 434.931 56.9197C434.529 56.759 434.208 56.5983 433.806 56.3572C432.118 55.4733 430.51 54.4286 428.822 53.5447C427.133 52.6608 425.606 51.8572 423.998 51.0536C423.355 50.7322 420.943 49.4465 420.782 50.25C420.782 50.8929 421.023 51.5358 421.506 51.9375C422.792 53.1429 424.239 54.3483 425.686 55.3929C427.053 56.5983 428.58 57.6429 430.108 58.6875C431.796 59.7322 432.198 60.6161 434.047 61.259C435.253 61.6608 432.922 60.4554 433.243 59.25C433.645 57.884 436.7 57 435.414 56.5179Z" fill="#153A23"/>
<path d="M451.171 55.0714C451.814 53.9464 452.376 53.5446 452.618 52.3393C453.261 49.8482 454.225 47.5178 455.351 45.1875C456.155 43.6607 456.878 42.0536 457.602 40.3661C457.763 39.8036 458.084 38.8393 457.602 38.3571C457.28 38.0357 456.637 38.1964 456.316 38.4375C455.672 38.9196 455.19 39.5625 454.869 40.2857C453.582 42.5357 452.216 44.7857 451.01 47.1161C450.447 48.2411 449.965 49.3661 449.322 50.4107C448.678 51.4553 448.035 52.5 447.392 53.5446C446.749 54.5893 448.518 53.1428 449.723 53.7857C450.929 54.4286 450.447 56.1964 451.171 55.0714Z" fill="#153A23"/>
<path d="M464.355 66.9643C467.49 65.3572 470.706 63.8304 473.922 62.384L473.6 62.5447C474.967 62.1429 479.871 59.4911 479.227 58.2857C478.906 57.6429 475.047 58.7679 474.002 59.25C472.957 59.7322 469.661 60.6965 468.455 61.0982C466.284 61.7411 463.953 61.7411 461.943 62.7857C460.818 63.3482 462.747 63.509 463.39 64.634C464.033 65.759 463.149 67.6072 464.355 66.9643Z" fill="#153A23"/>
<path d="M425.043 107.384L425.124 104.009L423.355 106.339C425.525 106.018 427.776 105.616 429.947 105.214L429.304 105.295C429.465 105.295 429.545 105.295 429.706 105.295L429.063 105.214C429.465 105.295 429.224 105.134 428.42 104.813C428.259 104.652 428.178 104.491 428.098 104.33C427.937 103.929 428.098 104.33 428.098 104.411C428.178 104.732 428.259 105.054 428.339 105.375L428.741 107.464C429.143 108.75 430.429 109.554 431.716 109.152C433.002 108.75 433.725 107.464 433.404 106.098C433.163 105.054 433.002 104.009 432.761 102.964C432.6 102.161 432.118 101.518 431.555 101.036C430.671 100.393 429.625 100.232 428.58 100.473C426.41 100.795 424.239 101.196 422.069 101.518C421.586 101.679 421.104 101.92 420.782 102.402C420.461 102.804 420.3 103.366 420.22 103.929L420.139 107.304C420.139 108.589 421.265 109.714 422.551 109.714C423.918 109.714 424.963 108.67 425.043 107.384Z" fill="#153A23"/>
<path d="M464.274 103.687C464.194 103.687 464.194 103.607 464.114 103.607L464.516 104.089C464.516 104.009 464.435 104.009 464.435 103.929L464.676 104.491C464.676 104.411 464.676 104.411 464.596 104.33L464.676 104.973C464.676 104.893 464.676 104.812 464.676 104.732L464.596 105.375C464.596 105.295 464.676 105.214 464.676 105.134L464.435 105.696C464.435 105.616 464.516 105.616 464.516 105.536L464.114 106.018C464.194 105.937 464.274 105.857 464.274 105.857L463.792 106.259C463.873 106.179 464.033 106.098 464.114 106.098L463.551 106.339C463.712 106.259 463.873 106.259 464.033 106.259L463.39 106.339C464.194 106.259 464.998 106.259 465.882 106.259C466.686 106.259 467.41 106.259 468.214 106.339L467.571 106.259C467.812 106.339 468.133 106.339 468.374 106.5L467.812 106.259C467.973 106.339 468.133 106.42 468.294 106.58L467.812 106.179C467.973 106.259 468.053 106.42 468.133 106.5L467.731 106.018C467.812 106.179 467.892 106.339 467.973 106.5L467.731 105.937C467.812 106.098 467.812 106.179 467.812 106.339L467.731 105.696C467.731 105.857 467.731 105.937 467.731 106.098L467.812 105.455C467.812 105.536 467.812 105.616 467.731 105.696L467.973 105.134C467.973 105.214 467.892 105.295 467.812 105.375C467.169 106.58 467.49 108.027 468.696 108.75C469.902 109.393 471.349 108.991 472.073 107.866C473.037 106.259 472.716 104.17 471.269 102.884C469.982 101.679 468.294 101.518 466.606 101.518H464.516C463.712 101.518 462.988 101.598 462.184 101.759C461.059 102.08 460.094 103.045 459.773 104.17C459.451 105.295 459.772 106.58 460.657 107.384C461.139 107.786 461.702 108.107 462.425 108.107C463.712 108.107 464.837 106.982 464.837 105.696C464.837 105.054 464.596 104.411 464.114 104.009L464.274 103.687Z" fill="#153A23"/>
<path d="M251.718 414.509C249.949 415.955 250.592 419.009 252.522 420.054C254.129 421.018 255.978 420.616 257.667 420.455L259.998 420.214C260.882 420.214 261.767 420.054 262.651 419.893C264.098 419.491 265.063 418.286 265.063 416.839C265.063 416.116 265.063 415.313 265.063 414.589C265.063 413.223 263.937 412.179 262.651 412.179C261.284 412.179 260.239 413.304 260.239 414.589V416.196C260.239 416.357 260.239 416.518 260.239 416.598C260.239 416.92 260.239 416.518 260.32 416.357L261.124 415.313C261.526 415.152 261.606 415.152 261.445 415.152C261.284 415.152 262.088 415.071 261.686 415.152C260.561 415.232 259.355 415.393 258.229 415.473C257.184 415.634 256.059 415.714 255.014 415.795C254.933 415.795 254.853 415.795 254.692 415.795C255.094 415.875 255.175 415.875 255.014 415.795H254.853C254.612 415.795 255.255 416.116 254.933 415.875C254.933 415.875 255.416 416.277 255.175 416.036C255.416 416.357 255.496 416.437 255.416 416.277C255.335 416.196 255.416 416.196 255.496 416.437C255.576 416.679 255.576 416.679 255.576 416.598C255.576 416.518 255.576 416.518 255.576 417C255.576 416.679 255.496 417.321 255.496 417.321C255.416 417.563 255.335 417.723 255.175 417.884C255.014 418.045 255.014 418.125 255.094 417.964C256.059 417 256.059 415.473 255.094 414.509C254.21 413.625 252.682 413.625 251.718 414.509Z" fill="#153A23"/>
<path d="M286.688 419.411H291.351C291.833 419.411 292.396 419.411 292.878 419.25C293.763 419.009 294.486 418.366 294.808 417.562C295.049 416.598 295.129 415.554 295.049 414.509C295.049 413.866 294.808 413.223 294.326 412.741C293.441 411.777 291.914 411.696 290.949 412.661C290.467 413.143 290.145 413.786 290.226 414.509C290.226 415.152 290.226 415.795 290.226 416.437L290.306 415.795C290.306 415.875 290.306 415.875 290.306 415.955L290.547 415.393V415.473L290.949 414.991C290.949 415.071 290.869 415.071 290.869 415.071L291.351 414.67C291.351 414.67 291.271 414.75 291.19 414.75L291.753 414.509C291.673 414.509 291.592 414.509 291.512 414.589L292.155 414.509C291.271 414.589 290.386 414.509 289.502 414.509H286.769C286.126 414.509 285.482 414.75 285.08 415.232C284.598 415.714 284.357 416.277 284.357 417C284.357 418.205 285.402 419.33 286.688 419.411Z" fill="#153A23"/>
<path d="M285 406.473C287.412 408.241 289.824 410.33 292.155 412.339C292.637 412.821 293.441 412.821 293.924 412.339C294.406 411.857 294.406 411.054 293.924 410.571C291.431 408.402 288.859 406.313 286.286 404.304C285.724 403.982 284.92 404.143 284.598 404.705C284.276 405.348 284.437 406.071 285 406.473Z" fill="#227B3D"/>
<path d="M279.855 409.045C281.784 410.812 283.875 412.42 286.045 413.946C286.608 414.268 287.412 414.107 287.733 413.545C288.055 412.982 287.894 412.259 287.331 411.857C286.849 411.536 286.286 411.134 285.804 410.812C285.563 410.652 285.322 410.411 285.08 410.25L285 410.17L284.92 410.089L284.518 409.768C283.553 408.964 282.588 408.161 281.704 407.357C281.222 406.875 280.418 406.875 280.016 407.357C279.614 407.839 279.373 408.562 279.855 409.045Z" fill="#227B3D"/>
<path d="M423.274 111.643L428.822 123.054C429.143 123.616 429.947 123.857 430.51 123.536C431.073 123.214 431.314 122.411 430.912 121.848L425.365 110.518C425.043 109.955 424.239 109.714 423.676 110.116C423.114 110.357 422.953 111.08 423.274 111.643Z" fill="#227B3D"/>
<path d="M429.384 109.634C430.027 111.321 430.831 112.929 431.716 114.455C432.68 116.223 433.645 117.911 434.449 119.759C434.771 120.321 435.574 120.562 436.137 120.161C436.7 119.839 436.941 119.036 436.539 118.473C435.735 116.705 434.771 115.018 433.886 113.33C433.484 112.527 433.002 111.723 432.6 110.839C432.439 110.437 432.198 110.036 432.037 109.714L431.957 109.473C431.796 109.152 432.037 109.554 431.957 109.393C431.876 109.232 431.796 109.071 431.796 108.911C431.635 108.268 430.912 107.866 430.269 108.027C429.625 108.268 429.223 108.991 429.384 109.634Z" fill="#227B3D"/>
<path d="M266.027 36.75C272.459 29.1964 279.533 22.125 287.01 15.6161C288.216 14.5714 286.447 12.8839 285.322 13.9286C277.765 20.4375 270.771 27.5893 264.339 35.1428C263.294 36.2678 264.982 38.0357 266.027 36.75Z" fill="#EFB086"/>
<path d="M271.173 39.4018C276.639 34.0179 281.865 28.3125 287.573 23.25C288.778 22.2054 287.01 20.4375 285.804 21.5625C280.096 26.7054 274.871 32.3304 269.404 37.7947C268.278 38.7589 270.047 40.5268 271.173 39.4018Z" fill="#EFB086"/>
<path d="M87.4765 289.232C83.7785 292.768 84.6628 300.161 91.0137 298.393C100.339 295.741 93.8275 283.205 87.4765 289.232Z" fill="white"/>
<path d="M114.81 79.8213C112.961 81.5892 113.443 85.2856 116.578 84.4017C121.322 83.116 118.026 76.8481 114.81 79.8213Z" fill="white"/>
<path d="M272.298 109.554C273.343 105.777 274.71 102.08 276.318 98.4642C276.559 97.9017 277.122 97.2589 277.604 97.5C278.086 97.741 278.086 98.4642 277.925 98.9464C277.122 102.321 276.318 105.777 275.514 109.152C278.729 108.83 281.865 109.312 284.839 110.598C285.08 110.679 285.241 111 285.08 111.241C285.08 111.321 285 111.402 284.92 111.482C283.151 112.607 281.061 113.17 278.971 113.089C278.247 113.009 277.363 112.929 276.8 113.491C276.478 113.893 276.318 114.295 276.237 114.777C275.514 117.75 274.469 120.562 273.022 123.214C272.861 123.455 272.539 123.616 272.218 123.455C272.057 123.375 271.976 123.214 271.976 123.054C271.414 120.402 272.539 117.429 272.459 114.616C272.459 114.295 272.378 113.973 272.218 113.732C271.976 113.411 271.574 113.25 271.173 113.25C268.198 112.607 265.224 111.723 262.41 110.598C261.606 110.277 260.722 109.473 261.284 108.83C261.445 108.67 261.686 108.589 262.008 108.509C263.776 108.187 265.625 108.187 267.394 108.509L272.298 109.554Z" fill="white"/>
<path d="M298.988 75.9642C296.094 78.6964 296.818 84.4821 301.802 83.116C309.118 81.0267 303.973 71.3035 298.988 75.9642Z" fill="white"/>
<path d="M360.488 356.009C356.79 359.545 357.675 366.937 364.026 365.17C373.431 362.518 366.839 349.982 360.488 356.009Z" fill="white"/>
<path d="M374.396 322.259C372.547 324.027 373.029 327.723 376.165 326.839C380.908 325.553 377.612 319.286 374.396 322.259Z" fill="white"/>
<path d="M408.643 327.964C406.955 323.143 405.669 318.241 404.704 313.259C404.543 312.455 404.624 311.411 405.427 311.25C406.231 311.089 406.633 311.893 406.875 312.616C408.482 316.795 410.171 321.054 411.778 325.232C414.914 322.58 418.692 320.732 422.712 319.848C423.033 319.768 423.435 320.009 423.435 320.33C423.435 320.491 423.435 320.571 423.355 320.732C422.31 323.223 420.541 325.313 418.21 326.759C417.406 327.241 416.441 327.804 416.2 328.768C416.12 329.411 416.28 330.054 416.522 330.616C417.969 334.232 418.853 338.089 419.335 341.946C419.335 342.348 419.094 342.75 418.692 342.75C418.451 342.75 418.29 342.67 418.129 342.589C415.557 340.259 414.592 336.161 412.502 333.268C412.261 332.946 411.939 332.625 411.618 332.464C411.135 332.384 410.573 332.464 410.171 332.705C406.553 334.152 402.775 335.438 398.916 336.321C397.871 336.563 396.263 336.321 396.424 335.277C396.504 334.955 396.665 334.714 396.906 334.473C398.514 332.786 400.443 331.5 402.614 330.536L408.643 327.964Z" fill="white"/>
<path d="M427.776 293.25C425.927 295.018 426.41 298.714 429.545 297.83C434.288 296.464 430.992 290.277 427.776 293.25Z" fill="white"/>
</svg>
